<svg width="185" height="284" viewBox="0 0 185 284" fill="none" xmlns="http://www.w3.org/2000/svg">
<path d="M2.30957 3.17845C2.30957 2.74966 2.65717 2.40205 3.08597 2.40205C3.51476 2.40205 3.86236 2.74966 3.86236 3.17845C3.86236 3.60724 3.51476 3.95485 3.08597 3.95485C2.65717 3.95485 2.30957 3.60724 2.30957 3.17845Z" fill="white"/>
<path d="M21.9106 3.17845C21.9106 2.62977 22.3554 2.18497 22.9041 2.18497C23.4528 2.18497 23.8976 2.62977 23.8976 3.17845C23.8976 3.72713 23.4528 4.17192 22.9041 4.17192C22.3554 4.17192 21.9106 3.72713 21.9106 3.17845Z" fill="white"/>
<path d="M41.4269 3.17844C41.4269 2.463 42.0069 1.88303 42.7223 1.88303C43.4377 1.88303 44.0177 2.463 44.0177 3.17844C44.0177 3.89387 43.4377 4.47385 42.7223 4.47385C42.0069 4.47385 41.4269 3.89387 41.4269 3.17844Z" fill="white"/>
<path d="M60.3185 3.17844C60.3185 1.9513 61.3133 0.956505 62.5404 0.956505C63.7676 0.956505 64.7623 1.9513 64.7623 3.17844C64.7623 4.40558 63.7676 5.40037 62.5404 5.40037C61.3133 5.40037 60.3185 4.40558 60.3185 3.17844Z" fill="white"/>
<path d="M80.2551 3.17845C80.2551 2.01677 81.1969 1.07505 82.3585 1.07505C83.5202 1.07505 84.4619 2.01677 84.4619 3.17845C84.4619 4.34012 83.5202 5.28185 82.3585 5.28185C81.1969 5.28185 80.2551 4.34012 80.2551 3.17845Z" fill="white"/>
<path d="M99.4495 3.17845C99.4495 1.67225 100.671 0.451241 102.177 0.451241C103.683 0.451241 104.904 1.67225 104.904 3.17845C104.904 4.68464 103.683 5.90565 102.177 5.90565C100.671 5.90565 99.4495 4.68464 99.4495 3.17845Z" fill="white"/>
<path d="M120.025 3.17845C120.025 2.09036 120.907 1.20829 121.995 1.20829C123.083 1.20829 123.965 2.09036 123.965 3.17845C123.965 4.26654 123.083 5.14861 121.995 5.14861C120.907 5.14861 120.025 4.26654 120.025 3.17845Z" fill="white"/>
<path d="M141.57 3.17844C141.57 3.04434 141.679 2.93563 141.813 2.93563C141.947 2.93563 142.056 3.04434 142.056 3.17844C142.056 3.31254 141.947 3.42125 141.813 3.42125C141.679 3.42125 141.57 3.31254 141.57 3.17844Z" fill="white"/>
<path d="M161.094 3.17844C161.094 2.88164 161.334 2.64104 161.631 2.64104C161.928 2.64104 162.169 2.88164 162.169 3.17844C162.169 3.47525 161.928 3.71585 161.631 3.71585C161.334 3.71585 161.094 3.47525 161.094 3.17844Z" fill="white"/>
<path d="M179.798 3.17845C179.798 2.26647 180.537 1.52717 181.449 1.52717C182.361 1.52717 183.101 2.26647 183.101 3.17845C183.101 4.09043 182.361 4.82973 181.449 4.82973C180.537 4.82973 179.798 4.09043 179.798 3.17845Z" fill="white"/>
<path d="M2.86536 22.9966C2.86536 22.8748 2.96409 22.7761 3.08589 22.7761C3.20769 22.7761 3.30642 22.8748 3.30642 22.9966C3.30642 23.1184 3.20769 23.2171 3.08589 23.2171C2.96409 23.2171 2.86536 23.1184 2.86536 22.9966Z" fill="white"/>
<path d="M21.557 22.9966C21.557 22.2527 22.1601 21.6496 22.904 21.6496C23.6479 21.6496 24.251 22.2527 24.251 22.9966C24.251 23.7405 23.6479 24.3436 22.904 24.3436C22.1601 24.3436 21.557 23.7405 21.557 22.9966Z" fill="white"/>
<path d="M42.6719 22.9966C42.6719 22.9688 42.6944 22.9462 42.7223 22.9462C42.7501 22.9462 42.7726 22.9688 42.7726 22.9966C42.7726 23.0244 42.7501 23.047 42.7223 23.047C42.6944 23.047 42.6719 23.0244 42.6719 22.9966Z" fill="white"/>
<path d="M61.2079 22.9966C61.2079 22.2607 61.8045 21.6641 62.5404 21.6641C63.2763 21.6641 63.8729 22.2607 63.8729 22.9966C63.8729 23.7326 63.2763 24.3291 62.5404 24.3291C61.8045 24.3291 61.2079 23.7326 61.2079 22.9966Z" fill="white"/>
<path d="M82.0789 22.9966C82.0789 22.8422 82.2041 22.7169 82.3586 22.7169C82.513 22.7169 82.6382 22.8422 82.6382 22.9966C82.6382 23.1511 82.513 23.2763 82.3586 23.2763C82.2041 23.2763 82.0789 23.1511 82.0789 22.9966Z" fill="white"/>
<path d="M100.074 22.9966C100.074 21.8355 101.016 20.8942 102.177 20.8942C103.338 20.8942 104.279 21.8355 104.279 22.9966C104.279 24.1577 103.338 25.099 102.177 25.099C101.016 25.099 100.074 24.1577 100.074 22.9966Z" fill="white"/>
<path d="M119.911 22.9966C119.911 21.8459 120.844 20.9131 121.995 20.9131C123.146 20.9131 124.078 21.8459 124.078 22.9966C124.078 24.1473 123.146 25.0801 121.995 25.0801C120.844 25.0801 119.911 24.1473 119.911 22.9966Z" fill="white"/>
<path d="M141.435 22.9966C141.435 22.7876 141.604 22.6182 141.813 22.6182C142.022 22.6182 142.191 22.7876 142.191 22.9966C142.191 23.2056 142.022 23.375 141.813 23.375C141.604 23.375 141.435 23.2056 141.435 22.9966Z" fill="white"/>
<path d="M159.147 22.9966C159.147 21.6245 160.259 20.5123 161.631 20.5123C163.003 20.5123 164.116 21.6245 164.116 22.9966C164.116 24.3687 163.003 25.481 161.631 25.481C160.259 25.481 159.147 24.3687 159.147 22.9966Z" fill="white"/>
<path d="M180.331 22.9966C180.331 22.3791 180.832 21.8785 181.449 21.8785C182.067 21.8785 182.567 22.3791 182.567 22.9966C182.567 23.6141 182.067 24.1147 181.449 24.1147C180.832 24.1147 180.331 23.6141 180.331 22.9966Z" fill="white"/>
<path d="M0.911133 42.8148C0.911133 41.6137 1.88482 40.64 3.08593 40.64C4.28704 40.64 5.26073 41.6137 5.26073 42.8148C5.26073 44.0159 4.28704 44.9896 3.08593 44.9896C1.88482 44.9896 0.911133 44.0159 0.911133 42.8148Z" fill="white"/>
<path d="M21.7207 42.8148C21.7207 42.1612 22.2505 41.6313 22.9041 41.6313C23.5577 41.6313 24.0875 42.1612 24.0875 42.8148C24.0875 43.4684 23.5577 43.9982 22.9041 43.9982C22.2505 43.9982 21.7207 43.4684 21.7207 42.8148Z" fill="white"/>
<path d="M40.4449 42.8148C40.4449 41.557 41.4645 40.5374 42.7223 40.5374C43.98 40.5374 44.9996 41.557 44.9996 42.8148C44.9996 44.0725 43.98 45.0921 42.7223 45.0921C41.4645 45.0921 40.4449 44.0725 40.4449 42.8148Z" fill="white"/>
<path d="M60.3969 42.8148C60.3969 41.631 61.3566 40.6713 62.5404 40.6713C63.7242 40.6713 64.6839 41.631 64.6839 42.8148C64.6839 43.9986 63.7242 44.9583 62.5404 44.9583C61.3566 44.9583 60.3969 43.9986 60.3969 42.8148Z" fill="white"/>
<path d="M82.2814 42.8148C82.2814 42.7722 82.316 42.7376 82.3586 42.7376C82.4012 42.7376 82.4357 42.7722 82.4357 42.8148C82.4357 42.8574 82.4012 42.8919 82.3586 42.8919C82.316 42.8919 82.2814 42.8574 82.2814 42.8148Z" fill="white"/>
<path d="M101.43 42.8148C101.43 42.4024 101.764 42.0681 102.177 42.0681C102.589 42.0681 102.923 42.4024 102.923 42.8148C102.923 43.2271 102.589 43.5614 102.177 43.5614C101.764 43.5614 101.43 43.2271 101.43 42.8148Z" fill="white"/>
<path d="M119.975 42.8148C119.975 41.6992 120.879 40.7949 121.995 40.7949C123.11 40.7949 124.015 41.6992 124.015 42.8148C124.015 43.9303 123.11 44.8346 121.995 44.8346C120.879 44.8346 119.975 43.9303 119.975 42.8148Z" fill="white"/>
<path d="M139.097 42.8148C139.097 41.3145 140.313 40.0983 141.813 40.0983C143.313 40.0983 144.53 41.3145 144.53 42.8148C144.53 44.3151 143.313 45.5313 141.813 45.5313C140.313 45.5313 139.097 44.3151 139.097 42.8148Z" fill="white"/>
<path d="M161.252 42.8148C161.252 42.6055 161.422 42.4358 161.631 42.4358C161.841 42.4358 162.01 42.6055 162.01 42.8148C162.01 43.0241 161.841 43.1937 161.631 43.1937C161.422 43.1937 161.252 43.0241 161.252 42.8148Z" fill="white"/>
<path d="M179.812 42.8148C179.812 41.9102 180.545 41.1768 181.449 41.1768C182.354 41.1768 183.087 41.9102 183.087 42.8148C183.087 43.7194 182.354 44.4527 181.449 44.4527C180.545 44.4527 179.812 43.7194 179.812 42.8148Z" fill="white"/>
<path d="M2.0304 62.6329C2.0304 62.05 2.503 61.5773 3.08598 61.5773C3.66897 61.5773 4.14157 62.05 4.14157 62.6329C4.14157 63.2159 3.66897 63.6885 3.08598 63.6885C2.503 63.6885 2.0304 63.2159 2.0304 62.6329Z" fill="white"/>
<path d="M20.2689 62.633C20.2689 61.1776 21.4487 59.9978 22.904 59.9978C24.3594 59.9978 25.5391 61.1776 25.5391 62.633C25.5391 64.0883 24.3594 65.2681 22.904 65.2681C21.4487 65.2681 20.2689 64.0883 20.2689 62.633Z" fill="white"/>
<path d="M40.7882 62.6329C40.7882 61.5648 41.6541 60.6989 42.7222 60.6989C43.7903 60.6989 44.6562 61.5648 44.6562 62.6329C44.6562 63.701 43.7903 64.5669 42.7222 64.5669C41.6541 64.5669 40.7882 63.701 40.7882 62.6329Z" fill="white"/>
<path d="M62.4309 62.6329C62.4309 62.5725 62.4799 62.5234 62.5404 62.5234C62.6009 62.5234 62.6499 62.5725 62.6499 62.6329C62.6499 62.6934 62.6009 62.7424 62.5404 62.7424C62.4799 62.7424 62.4309 62.6934 62.4309 62.6329Z" fill="white"/>
<path d="M80.6235 62.6329C80.6235 61.6747 81.4003 60.8979 82.3585 60.8979C83.3168 60.8979 84.0936 61.6747 84.0936 62.6329C84.0936 63.5912 83.3168 64.368 82.3585 64.368C81.4003 64.368 80.6235 63.5912 80.6235 62.6329Z" fill="white"/>
<path d="M100.54 62.6329C100.54 61.7292 101.273 60.9965 102.177 60.9965C103.081 60.9965 103.813 61.7292 103.813 62.6329C103.813 63.5367 103.081 64.2693 102.177 64.2693C101.273 64.2693 100.54 63.5367 100.54 62.6329Z" fill="white"/>
<path d="M121.677 62.6329C121.677 62.4576 121.82 62.3155 121.995 62.3155C122.17 62.3155 122.312 62.4576 122.312 62.6329C122.312 62.8083 122.17 62.9504 121.995 62.9504C121.82 62.9504 121.677 62.8083 121.677 62.6329Z" fill="white"/>
<path d="M141.731 62.6329C141.731 62.5874 141.768 62.5506 141.813 62.5506C141.859 62.5506 141.895 62.5874 141.895 62.6329C141.895 62.6784 141.859 62.7153 141.813 62.7153C141.768 62.7153 141.731 62.6784 141.731 62.6329Z" fill="white"/>
<path d="M160.42 62.6329C160.42 61.9638 160.962 61.4213 161.631 61.4213C162.3 61.4213 162.843 61.9638 162.843 62.6329C162.843 63.3021 162.3 63.8446 161.631 63.8446C160.962 63.8446 160.42 63.3021 160.42 62.6329Z" fill="white"/>
<path d="M180.983 62.6329C180.983 62.3753 181.192 62.1665 181.449 62.1665C181.707 62.1665 181.916 62.3753 181.916 62.6329C181.916 62.8905 181.707 63.0994 181.449 63.0994C181.192 63.0994 180.983 62.8905 180.983 62.6329Z" fill="white"/>
<path d="M2.6134 82.4511C2.6134 82.1902 2.82495 81.9786 3.0859 81.9786C3.34685 81.9786 3.55839 82.1902 3.55839 82.4511C3.55839 82.7121 3.34685 82.9236 3.0859 82.9236C2.82495 82.9236 2.6134 82.7121 2.6134 82.4511Z" fill="white"/>
<path d="M22.058 82.4511C22.058 81.9838 22.4368 81.605 22.9041 81.605C23.3713 81.605 23.7502 81.9838 23.7502 82.4511C23.7502 82.9184 23.3713 83.2972 22.9041 83.2972C22.4368 83.2972 22.058 82.9184 22.058 82.4511Z" fill="white"/>
<path d="M40.7267 82.4511C40.7267 81.349 41.6201 80.4555 42.7223 80.4555C43.8244 80.4555 44.7179 81.349 44.7179 82.4511C44.7179 83.5532 43.8244 84.4467 42.7223 84.4467C41.6201 84.4467 40.7267 83.5532 40.7267 82.4511Z" fill="white"/>
<path d="M59.9103 82.4511C59.9103 80.9985 61.0878 79.8209 62.5404 79.8209C63.993 79.8209 65.1706 80.9985 65.1706 82.4511C65.1706 83.9037 63.993 85.0812 62.5404 85.0812C61.0878 85.0812 59.9103 83.9037 59.9103 82.4511Z" fill="white"/>
<path d="M82.3415 82.4511C82.3415 82.4416 82.3491 82.434 82.3586 82.434C82.368 82.434 82.3757 82.4416 82.3757 82.4511C82.3757 82.4605 82.368 82.4682 82.3586 82.4682C82.3491 82.4682 82.3415 82.4605 82.3415 82.4511Z" fill="white"/>
<path d="M99.4125 82.4511C99.4125 80.9245 100.65 79.6869 102.177 79.6869C103.703 79.6869 104.941 80.9245 104.941 82.4511C104.941 83.9778 103.703 85.2153 102.177 85.2153C100.65 85.2153 99.4125 83.9778 99.4125 82.4511Z" fill="white"/>
<path d="M120.055 82.4511C120.055 81.3799 120.924 80.5115 121.995 80.5115C123.066 80.5115 123.935 81.3799 123.935 82.4511C123.935 83.5223 123.066 84.3907 121.995 84.3907C120.924 84.3907 120.055 83.5223 120.055 82.4511Z" fill="white"/>
<path d="M140.864 82.4511C140.864 81.927 141.289 81.5021 141.813 81.5021C142.337 81.5021 142.762 81.927 142.762 82.4511C142.762 82.9753 142.337 83.4001 141.813 83.4001C141.289 83.4001 140.864 82.9753 140.864 82.4511Z" fill="white"/>
<path d="M159.177 82.4511C159.177 81.0958 160.276 79.9971 161.631 79.9971C162.987 79.9971 164.085 81.0958 164.085 82.4511C164.085 83.8064 162.987 84.9051 161.631 84.9051C160.276 84.9051 159.177 83.8064 159.177 82.4511Z" fill="white"/>
<path d="M180.843 82.4511C180.843 82.116 181.114 81.8444 181.449 81.8444C181.784 81.8444 182.056 82.116 182.056 82.4511C182.056 82.7862 181.784 83.0578 181.449 83.0578C181.114 83.0578 180.843 82.7862 180.843 82.4511Z" fill="white"/>
<path d="M0.525391 102.269C0.525391 100.855 1.67177 99.7087 3.0859 99.7087C4.50004 99.7087 5.64642 100.855 5.64642 102.269C5.64642 103.683 4.50004 104.83 3.0859 104.83C1.67177 104.83 0.525391 103.683 0.525391 102.269Z" fill="white"/>
<path d="M22.7175 102.269C22.7175 102.166 22.8011 102.083 22.9041 102.083C23.0072 102.083 23.0907 102.166 23.0907 102.269C23.0907 102.372 23.0072 102.456 22.9041 102.456C22.8011 102.456 22.7175 102.372 22.7175 102.269Z" fill="white"/>
<path d="M40.5928 102.269C40.5928 101.093 41.5462 100.14 42.7223 100.14C43.8983 100.14 44.8517 101.093 44.8517 102.269C44.8517 103.445 43.8983 104.399 42.7223 104.399C41.5462 104.399 40.5928 103.445 40.5928 102.269Z" fill="white"/>
<path d="M62.1039 102.269C62.1039 102.028 62.2993 101.833 62.5404 101.833C62.7815 101.833 62.9769 102.028 62.9769 102.269C62.9769 102.51 62.7815 102.706 62.5404 102.706C62.2993 102.706 62.1039 102.51 62.1039 102.269Z" fill="white"/>
<path d="M82.0377 102.269C82.0377 102.092 82.1813 101.948 82.3586 101.948C82.5358 101.948 82.6795 102.092 82.6795 102.269C82.6795 102.446 82.5358 102.59 82.3586 102.59C82.1813 102.59 82.0377 102.446 82.0377 102.269Z" fill="white"/>
<path d="M100.171 102.269C100.171 101.161 101.069 100.263 102.177 100.263C103.285 100.263 104.183 101.161 104.183 102.269C104.183 103.377 103.285 104.275 102.177 104.275C101.069 104.275 100.171 103.377 100.171 102.269Z" fill="white"/>
<path d="M119.224 102.269C119.224 100.739 120.465 99.4987 121.995 99.4987C123.525 99.4987 124.765 100.739 124.765 102.269C124.765 103.799 123.525 105.04 121.995 105.04C120.465 105.04 119.224 103.799 119.224 102.269Z" fill="white"/>
<path d="M141.212 102.269C141.212 101.937 141.481 101.668 141.813 101.668C142.145 101.668 142.414 101.937 142.414 102.269C142.414 102.601 142.145 102.87 141.813 102.87C141.481 102.87 141.212 102.601 141.212 102.269Z" fill="white"/>
<path d="M159.625 102.269C159.625 101.161 160.523 100.263 161.631 100.263C162.739 100.263 163.638 101.161 163.638 102.269C163.638 103.377 162.739 104.276 161.631 104.276C160.523 104.276 159.625 103.377 159.625 102.269Z" fill="white"/>
<path d="M179.618 102.269C179.618 101.258 180.438 100.438 181.449 100.438C182.461 100.438 183.28 101.258 183.28 102.269C183.28 103.281 182.461 104.1 181.449 104.1C180.438 104.1 179.618 103.281 179.618 102.269Z" fill="white"/>
<path d="M2.97656 122.087C2.97656 122.027 3.02553 121.978 3.08594 121.978C3.14635 121.978 3.19532 122.027 3.19532 122.087C3.19532 122.148 3.14635 122.197 3.08594 122.197C3.02553 122.197 2.97656 122.148 2.97656 122.087Z" fill="white"/>
<path d="M20.9752 122.087C20.9752 121.022 21.8388 120.159 22.9041 120.159C23.9694 120.159 24.8329 121.022 24.8329 122.087C24.8329 123.153 23.9694 124.016 22.9041 124.016C21.8388 124.016 20.9752 123.153 20.9752 122.087Z" fill="white"/>
<path d="M40.5437 122.087C40.5437 120.884 41.5191 119.909 42.7222 119.909C43.9254 119.909 44.9007 120.884 44.9007 122.087C44.9007 123.291 43.9254 124.266 42.7222 124.266C41.5191 124.266 40.5437 123.291 40.5437 122.087Z" fill="white"/>
<path d="M60.9654 122.087C60.9654 121.218 61.6706 120.512 62.5404 120.512C63.4103 120.512 64.1154 121.218 64.1154 122.087C64.1154 122.957 63.4103 123.662 62.5404 123.662C61.6706 123.662 60.9654 122.957 60.9654 122.087Z" fill="white"/>
<path d="M81.1871 122.087C81.1871 121.44 81.7116 120.916 82.3586 120.916C83.0056 120.916 83.5301 121.44 83.5301 122.087C83.5301 122.734 83.0056 123.259 82.3586 123.259C81.7116 123.259 81.1871 122.734 81.1871 122.087Z" fill="white"/>
<path d="M101.08 122.087C101.08 121.482 101.571 120.991 102.177 120.991C102.782 120.991 103.273 121.482 103.273 122.087C103.273 122.693 102.782 123.184 102.177 123.184C101.571 123.184 101.08 122.693 101.08 122.087Z" fill="white"/>
<path d="M121.796 122.087C121.796 121.978 121.885 121.889 121.995 121.889C122.105 121.889 122.193 121.978 122.193 122.087C122.193 122.197 122.105 122.286 121.995 122.286C121.885 122.286 121.796 122.197 121.796 122.087Z" fill="white"/>
<path d="M140.962 122.087C140.962 121.617 141.343 121.236 141.813 121.236C142.283 121.236 142.665 121.617 142.665 122.087C142.665 122.558 142.283 122.939 141.813 122.939C141.343 122.939 140.962 122.558 140.962 122.087Z" fill="white"/>
<path d="M160.063 122.087C160.063 121.222 160.765 120.52 161.631 120.52C162.497 120.52 163.199 121.222 163.199 122.087C163.199 122.953 162.497 123.655 161.631 123.655C160.765 123.655 160.063 122.953 160.063 122.087Z" fill="white"/>
<path d="M180.578 122.087C180.578 121.606 180.968 121.216 181.449 121.216C181.931 121.216 182.321 121.606 182.321 122.087C182.321 122.569 181.931 122.959 181.449 122.959C180.968 122.959 180.578 122.569 180.578 122.087Z" fill="white"/>
<path d="M2.52063 141.906C2.52063 141.593 2.77375 141.34 3.08599 141.34C3.39823 141.34 3.65135 141.593 3.65135 141.906C3.65135 142.218 3.39823 142.471 3.08599 142.471C2.77375 142.471 2.52063 142.218 2.52063 141.906Z" fill="white"/>
<path d="M20.5248 141.906C20.5248 140.592 21.59 139.526 22.9041 139.526C24.2181 139.526 25.2833 140.592 25.2833 141.906C25.2833 143.22 24.2181 144.285 22.9041 144.285C21.59 144.285 20.5248 143.22 20.5248 141.906Z" fill="white"/>
<path d="M42.3467 141.906C42.3467 141.698 42.5148 141.53 42.7223 141.53C42.9297 141.53 43.0979 141.698 43.0979 141.906C43.0979 142.113 42.9297 142.281 42.7223 142.281C42.5148 142.281 42.3467 142.113 42.3467 141.906Z" fill="white"/>
<path d="M60.3862 141.906C60.3862 140.716 61.3507 139.751 62.5404 139.751C63.7302 139.751 64.6947 140.716 64.6947 141.906C64.6947 143.095 63.7302 144.06 62.5404 144.06C61.3507 144.06 60.3862 143.095 60.3862 141.906Z" fill="white"/>
<path d="M80.395 141.906C80.395 140.821 81.2741 139.942 82.3585 139.942C83.443 139.942 84.3221 140.821 84.3221 141.906C84.3221 142.99 83.443 143.869 82.3585 143.869C81.2741 143.869 80.395 142.99 80.395 141.906Z" fill="white"/>
<path d="M101.723 141.906C101.723 141.655 101.926 141.452 102.177 141.452C102.427 141.452 102.63 141.655 102.63 141.906C102.63 142.156 102.427 142.359 102.177 142.359C101.926 142.359 101.723 142.156 101.723 141.906Z" fill="white"/>
<path d="M119.579 141.906C119.579 140.571 120.66 139.489 121.995 139.489C123.329 139.489 124.411 140.571 124.411 141.906C124.411 143.24 123.329 144.322 121.995 144.322C120.66 144.322 119.579 143.24 119.579 141.906Z" fill="white"/>
<path d="M140.032 141.906C140.032 140.922 140.829 140.124 141.813 140.124C142.797 140.124 143.594 140.922 143.594 141.906C143.594 142.889 142.797 143.687 141.813 143.687C140.829 143.687 140.032 142.889 140.032 141.906Z" fill="white"/>
<path d="M159.824 141.906C159.824 140.907 160.633 140.098 161.631 140.098C162.629 140.098 163.439 140.907 163.439 141.906C163.439 142.904 162.629 143.713 161.631 143.713C160.633 143.713 159.824 142.904 159.824 141.906Z" fill="white"/>
<path d="M178.788 141.906C178.788 140.436 179.98 139.244 181.449 139.244C182.919 139.244 184.111 140.436 184.111 141.906C184.111 143.375 182.919 144.567 181.449 144.567C179.98 144.567 178.788 143.375 178.788 141.906Z" fill="white"/>
<path d="M1.84583 161.724C1.84583 161.039 2.40103 160.484 3.08591 160.484C3.77079 160.484 4.32599 161.039 4.32599 161.724C4.32599 162.409 3.77079 162.964 3.08591 162.964C2.40103 162.964 1.84583 162.409 1.84583 161.724Z" fill="white"/>
<path d="M21.8157 161.724C21.8157 161.123 22.303 160.635 22.9041 160.635C23.5052 160.635 23.9925 161.123 23.9925 161.724C23.9925 162.325 23.5052 162.812 22.9041 162.812C22.303 162.812 21.8157 162.325 21.8157 161.724Z" fill="white"/>
<path d="M40.0422 161.724C40.0422 160.244 41.2421 159.044 42.7222 159.044C44.2023 159.044 45.4022 160.244 45.4022 161.724C45.4022 163.204 44.2023 164.404 42.7222 164.404C41.2421 164.404 40.0422 163.204 40.0422 161.724Z" fill="white"/>
<path d="M62.5186 161.724C62.5186 161.712 62.5284 161.702 62.5404 161.702C62.5525 161.702 62.5623 161.712 62.5623 161.724C62.5623 161.736 62.5525 161.746 62.5404 161.746C62.5284 161.746 62.5186 161.736 62.5186 161.724Z" fill="white"/>
<path d="M80.0212 161.724C80.0212 160.433 81.0677 159.386 82.3586 159.386C83.6495 159.386 84.696 160.433 84.696 161.724C84.696 163.015 83.6495 164.061 82.3586 164.061C81.0677 164.061 80.0212 163.015 80.0212 161.724Z" fill="white"/>
<path d="M102.115 161.724C102.115 161.69 102.143 161.662 102.177 161.662C102.211 161.662 102.238 161.69 102.238 161.724C102.238 161.758 102.211 161.785 102.177 161.785C102.143 161.785 102.115 161.758 102.115 161.724Z" fill="white"/>
<path d="M119.392 161.724C119.392 160.286 120.557 159.121 121.995 159.121C123.433 159.121 124.598 160.286 124.598 161.724C124.598 163.161 123.433 164.327 121.995 164.327C120.557 164.327 119.392 163.161 119.392 161.724Z" fill="white"/>
<path d="M141.564 161.724C141.564 161.586 141.675 161.475 141.813 161.475C141.951 161.475 142.062 161.586 142.062 161.724C142.062 161.861 141.951 161.973 141.813 161.973C141.675 161.973 141.564 161.861 141.564 161.724Z" fill="white"/>
<path d="M159.438 161.724C159.438 160.512 160.42 159.53 161.631 159.53C162.843 159.53 163.825 160.512 163.825 161.724C163.825 162.935 162.843 163.917 161.631 163.917C160.42 163.917 159.438 162.935 159.438 161.724Z" fill="white"/>
<path d="M180.862 161.724C180.862 161.399 181.125 161.136 181.449 161.136C181.774 161.136 182.037 161.399 182.037 161.724C182.037 162.048 181.774 162.311 181.449 162.311C181.125 162.311 180.862 162.048 180.862 161.724Z" fill="white"/>
<path d="M2.6134 181.794C2.6134 181.533 2.82495 181.321 3.0859 181.321C3.34685 181.321 3.55839 181.533 3.55839 181.794C3.55839 182.055 3.34685 182.266 3.0859 182.266C2.82495 182.266 2.6134 182.055 2.6134 181.794Z" fill="white"/>
<path d="M22.058 181.794C22.058 181.327 22.4368 180.948 22.9041 180.948C23.3713 180.948 23.7502 181.327 23.7502 181.794C23.7502 182.261 23.3713 182.64 22.9041 182.64C22.4368 182.64 22.058 182.261 22.058 181.794Z" fill="white"/>
<path d="M40.7267 181.794C40.7267 180.692 41.6201 179.798 42.7223 179.798C43.8244 179.798 44.7179 180.692 44.7179 181.794C44.7179 182.896 43.8244 183.789 42.7223 183.789C41.6201 183.789 40.7267 182.896 40.7267 181.794Z" fill="white"/>
<path d="M59.9103 181.794C59.9103 180.341 61.0878 179.164 62.5404 179.164C63.993 179.164 65.1706 180.341 65.1706 181.794C65.1706 183.246 63.993 184.424 62.5404 184.424C61.0878 184.424 59.9103 183.246 59.9103 181.794Z" fill="white"/>
<path d="M82.3415 181.794C82.3415 181.784 82.3491 181.777 82.3586 181.777C82.368 181.777 82.3757 181.784 82.3757 181.794C82.3757 181.803 82.368 181.811 82.3586 181.811C82.3491 181.811 82.3415 181.803 82.3415 181.794Z" fill="white"/>
<path d="M99.4125 181.794C99.4125 180.267 100.65 179.03 102.177 179.03C103.703 179.03 104.941 180.267 104.941 181.794C104.941 183.321 103.703 184.558 102.177 184.558C100.65 184.558 99.4125 183.321 99.4125 181.794Z" fill="white"/>
<path d="M79.3836 181.794C79.3836 180.267 80.6212 179.03 82.1478 179.03C83.6745 179.03 84.9121 180.267 84.9121 181.794C84.9121 183.321 83.6745 184.558 82.1478 184.558C80.6212 184.558 79.3836 183.321 79.3836 181.794Z" fill="white"/>
<path d="M120.055 181.794C120.055 180.723 120.924 179.854 121.995 179.854C123.066 179.854 123.935 180.723 123.935 181.794C123.935 182.865 123.066 183.734 121.995 183.734C120.924 183.734 120.055 182.865 120.055 181.794Z" fill="white"/>
<path d="M140.864 181.794C140.864 181.27 141.289 180.845 141.813 180.845C142.337 180.845 142.762 181.27 142.762 181.794C142.762 182.318 142.337 182.743 141.813 182.743C141.289 182.743 140.864 182.318 140.864 181.794Z" fill="white"/>
<path d="M159.177 181.794C159.177 180.439 160.276 179.34 161.631 179.34C162.987 179.34 164.085 180.439 164.085 181.794C164.085 183.149 162.987 184.248 161.631 184.248C160.276 184.248 159.177 183.149 159.177 181.794Z" fill="white"/>
<path d="M180.843 181.794C180.843 181.459 181.114 181.187 181.449 181.187C181.784 181.187 182.056 181.459 182.056 181.794C182.056 182.129 181.784 182.401 181.449 182.401C181.114 182.401 180.843 182.129 180.843 181.794Z" fill="white"/>
<path d="M0.525391 201.612C0.525391 200.198 1.67177 199.052 3.0859 199.052C4.50004 199.052 5.64642 200.198 5.64642 201.612C5.64642 203.026 4.50004 204.173 3.0859 204.173C1.67177 204.173 0.525391 203.026 0.525391 201.612Z" fill="white"/>
<path d="M22.7175 201.612C22.7175 201.509 22.8011 201.425 22.9041 201.425C23.0072 201.425 23.0907 201.509 23.0907 201.612C23.0907 201.715 23.0072 201.799 22.9041 201.799C22.8011 201.799 22.7175 201.715 22.7175 201.612Z" fill="white"/>
<path d="M40.5928 201.612C40.5928 200.436 41.5462 199.483 42.7223 199.483C43.8983 199.483 44.8517 200.436 44.8517 201.612C44.8517 202.788 43.8983 203.742 42.7223 203.742C41.5462 203.742 40.5928 202.788 40.5928 201.612Z" fill="white"/>
<path d="M62.1039 201.612C62.1039 201.371 62.2993 201.175 62.5404 201.175C62.7815 201.175 62.9769 201.371 62.9769 201.612C62.9769 201.853 62.7815 202.049 62.5404 202.049C62.2993 202.049 62.1039 201.853 62.1039 201.612Z" fill="white"/>
<path d="M82.0377 201.612C82.0377 201.435 82.1813 201.291 82.3586 201.291C82.5358 201.291 82.6795 201.435 82.6795 201.612C82.6795 201.789 82.5358 201.933 82.3586 201.933C82.1813 201.933 82.0377 201.789 82.0377 201.612Z" fill="white"/>
<path d="M100.171 201.612C100.171 200.504 101.069 199.606 102.177 199.606C103.285 199.606 104.183 200.504 104.183 201.612C104.183 202.72 103.285 203.618 102.177 203.618C101.069 203.618 100.171 202.72 100.171 201.612Z" fill="white"/>
<path d="M119.224 201.612C119.224 200.082 120.465 198.842 121.995 198.842C123.525 198.842 124.765 200.082 124.765 201.612C124.765 203.142 123.525 204.383 121.995 204.383C120.465 204.383 119.224 203.142 119.224 201.612Z" fill="white"/>
<path d="M141.212 201.612C141.212 201.28 141.481 201.011 141.813 201.011C142.145 201.011 142.414 201.28 142.414 201.612C142.414 201.944 142.145 202.213 141.813 202.213C141.481 202.213 141.212 201.944 141.212 201.612Z" fill="white"/>
<path d="M159.625 201.612C159.625 200.504 160.523 199.606 161.631 199.606C162.739 199.606 163.638 200.504 163.638 201.612C163.638 202.72 162.739 203.618 161.631 203.618C160.523 203.618 159.625 202.72 159.625 201.612Z" fill="white"/>
<path d="M179.618 201.612C179.618 200.601 180.438 199.781 181.449 199.781C182.461 199.781 183.28 200.601 183.28 201.612C183.28 202.623 182.461 203.443 181.449 203.443C180.438 203.443 179.618 202.623 179.618 201.612Z" fill="white"/>
<path d="M2.97656 221.43C2.97656 221.37 3.02553 221.321 3.08594 221.321C3.14635 221.321 3.19532 221.37 3.19532 221.43C3.19532 221.491 3.14635 221.54 3.08594 221.54C3.02553 221.54 2.97656 221.491 2.97656 221.43Z" fill="white"/>
<path d="M20.9752 221.43C20.9752 220.365 21.8388 219.501 22.9041 219.501C23.9694 219.501 24.8329 220.365 24.8329 221.43C24.8329 222.495 23.9694 223.359 22.9041 223.359C21.8388 223.359 20.9752 222.495 20.9752 221.43Z" fill="white"/>
<path d="M40.5437 221.43C40.5437 220.227 41.5191 219.252 42.7222 219.252C43.9254 219.252 44.9007 220.227 44.9007 221.43C44.9007 222.633 43.9254 223.609 42.7222 223.609C41.5191 223.609 40.5437 222.633 40.5437 221.43Z" fill="white"/>
<path d="M60.9654 221.43C60.9654 220.56 61.6706 219.855 62.5404 219.855C63.4103 219.855 64.1154 220.56 64.1154 221.43C64.1154 222.3 63.4103 223.005 62.5404 223.005C61.6706 223.005 60.9654 222.3 60.9654 221.43Z" fill="white"/>
<path d="M81.1871 221.43C81.1871 220.783 81.7116 220.259 82.3586 220.259C83.0056 220.259 83.5301 220.783 83.5301 221.43C83.5301 222.077 83.0056 222.602 82.3586 222.602C81.7116 222.602 81.1871 222.077 81.1871 221.43Z" fill="white"/>
<path d="M101.08 221.43C101.08 220.825 101.571 220.334 102.177 220.334C102.782 220.334 103.273 220.825 103.273 221.43C103.273 222.036 102.782 222.527 102.177 222.527C101.571 222.527 101.08 222.036 101.08 221.43Z" fill="white"/>
<path d="M121.796 221.43C121.796 221.321 121.885 221.232 121.995 221.232C122.105 221.232 122.193 221.321 122.193 221.43C122.193 221.54 122.105 221.629 121.995 221.629C121.885 221.629 121.796 221.54 121.796 221.43Z" fill="white"/>
<path d="M140.962 221.43C140.962 220.96 141.343 220.579 141.813 220.579C142.283 220.579 142.665 220.96 142.665 221.43C142.665 221.9 142.283 222.282 141.813 222.282C141.343 222.282 140.962 221.9 140.962 221.43Z" fill="white"/>
<path d="M160.063 221.43C160.063 220.564 160.765 219.862 161.631 219.862C162.497 219.862 163.199 220.564 163.199 221.43C163.199 222.296 162.497 222.998 161.631 222.998C160.765 222.998 160.063 222.296 160.063 221.43Z" fill="white"/>
<path d="M180.578 221.43C180.578 220.949 180.968 220.558 181.449 220.558C181.931 220.558 182.321 220.949 182.321 221.43C182.321 221.912 181.931 222.302 181.449 222.302C180.968 222.302 180.578 221.912 180.578 221.43Z" fill="white"/>
<path d="M2.52063 241.248C2.52063 240.936 2.77375 240.683 3.08599 240.683C3.39823 240.683 3.65135 240.936 3.65135 241.248C3.65135 241.561 3.39823 241.814 3.08599 241.814C2.77375 241.814 2.52063 241.561 2.52063 241.248Z" fill="white"/>
<path d="M20.5248 241.248C20.5248 239.934 21.59 238.869 22.9041 238.869C24.2181 238.869 25.2833 239.934 25.2833 241.248C25.2833 242.562 24.2181 243.628 22.9041 243.628C21.59 243.628 20.5248 242.562 20.5248 241.248Z" fill="white"/>
<path d="M42.3467 241.248C42.3467 241.041 42.5148 240.873 42.7223 240.873C42.9297 240.873 43.0979 241.041 43.0979 241.248C43.0979 241.456 42.9297 241.624 42.7223 241.624C42.5148 241.624 42.3467 241.456 42.3467 241.248Z" fill="white"/>
<path d="M60.3862 241.248C60.3862 240.059 61.3507 239.094 62.5404 239.094C63.7302 239.094 64.6947 240.059 64.6947 241.248C64.6947 242.438 63.7302 243.403 62.5404 243.403C61.3507 243.403 60.3862 242.438 60.3862 241.248Z" fill="white"/>
<path d="M80.395 241.248C80.395 240.164 81.2741 239.285 82.3585 239.285C83.443 239.285 84.3221 240.164 84.3221 241.248C84.3221 242.333 83.443 243.212 82.3585 243.212C81.2741 243.212 80.395 242.333 80.395 241.248Z" fill="white"/>
<path d="M101.723 241.248C101.723 240.998 101.926 240.795 102.177 240.795C102.427 240.795 102.63 240.998 102.63 241.248C102.63 241.499 102.427 241.702 102.177 241.702C101.926 241.702 101.723 241.499 101.723 241.248Z" fill="white"/>
<path d="M119.579 241.248C119.579 239.914 120.66 238.832 121.995 238.832C123.329 238.832 124.411 239.914 124.411 241.248C124.411 242.583 123.329 243.665 121.995 243.665C120.66 243.665 119.579 242.583 119.579 241.248Z" fill="white"/>
<path d="M140.032 241.248C140.032 240.265 140.829 239.467 141.813 239.467C142.797 239.467 143.594 240.265 143.594 241.248C143.594 242.232 142.797 243.03 141.813 243.03C140.829 243.03 140.032 242.232 140.032 241.248Z" fill="white"/>
<path d="M159.824 241.248C159.824 240.25 160.633 239.441 161.631 239.441C162.629 239.441 163.439 240.25 163.439 241.248C163.439 242.247 162.629 243.056 161.631 243.056C160.633 243.056 159.824 242.247 159.824 241.248Z" fill="white"/>
<path d="M178.788 241.248C178.788 239.779 179.98 238.587 181.449 238.587C182.919 238.587 184.111 239.779 184.111 241.248C184.111 242.718 182.919 243.91 181.449 243.91C179.98 243.91 178.788 242.718 178.788 241.248Z" fill="white"/>
<path d="M1.84583 261.067C1.84583 260.382 2.40103 259.826 3.08591 259.826C3.77079 259.826 4.32599 260.382 4.32599 261.067C4.32599 261.751 3.77079 262.307 3.08591 262.307C2.40103 262.307 1.84583 261.751 1.84583 261.067Z" fill="white"/>
<path d="M21.8157 261.067C21.8157 260.465 22.303 259.978 22.9041 259.978C23.5052 259.978 23.9925 260.465 23.9925 261.067C23.9925 261.668 23.5052 262.155 22.9041 262.155C22.303 262.155 21.8157 261.668 21.8157 261.067Z" fill="white"/>
<path d="M40.0422 261.067C40.0422 259.586 41.2421 258.387 42.7222 258.387C44.2023 258.387 45.4022 259.586 45.4022 261.067C45.4022 262.547 44.2023 263.746 42.7222 263.746C41.2421 263.746 40.0422 262.547 40.0422 261.067Z" fill="white"/>
<path d="M62.5186 261.067C62.5186 261.054 62.5284 261.045 62.5404 261.045C62.5525 261.045 62.5623 261.054 62.5623 261.067C62.5623 261.079 62.5525 261.088 62.5404 261.088C62.5284 261.088 62.5186 261.079 62.5186 261.067Z" fill="white"/>
<path d="M80.0212 261.067C80.0212 259.776 81.0677 258.729 82.3586 258.729C83.6495 258.729 84.696 259.776 84.696 261.067C84.696 262.357 83.6495 263.404 82.3586 263.404C81.0677 263.404 80.0212 262.357 80.0212 261.067Z" fill="white"/>
<path d="M102.115 261.067C102.115 261.033 102.143 261.005 102.177 261.005C102.211 261.005 102.238 261.033 102.238 261.067C102.238 261.1 102.211 261.128 102.177 261.128C102.143 261.128 102.115 261.1 102.115 261.067Z" fill="white"/>
<path d="M119.392 261.067C119.392 259.629 120.557 258.463 121.995 258.463C123.433 258.463 124.598 259.629 124.598 261.067C124.598 262.504 123.433 263.67 121.995 263.67C120.557 263.67 119.392 262.504 119.392 261.067Z" fill="white"/>
<path d="M141.564 261.067C141.564 260.929 141.675 260.817 141.813 260.817C141.951 260.817 142.062 260.929 142.062 261.067C142.062 261.204 141.951 261.316 141.813 261.316C141.675 261.316 141.564 261.204 141.564 261.067Z" fill="white"/>
<path d="M159.438 261.067C159.438 259.855 160.42 258.873 161.631 258.873C162.843 258.873 163.825 259.855 163.825 261.067C163.825 262.278 162.843 263.26 161.631 263.26C160.42 263.26 159.438 262.278 159.438 261.067Z" fill="white"/>
<path d="M180.862 261.067C180.862 260.742 181.125 260.479 181.449 260.479C181.774 260.479 182.037 260.742 182.037 261.067C182.037 261.391 181.774 261.654 181.449 261.654C181.125 261.654 180.862 261.391 180.862 261.067Z" fill="white"/>
<path d="M2.91113 280.885C2.91113 280.788 2.98936 280.71 3.08586 280.71C3.18237 280.71 3.2606 280.788 3.2606 280.885C3.2606 280.981 3.18237 281.059 3.08586 281.059C2.98936 281.059 2.91113 280.981 2.91113 280.885Z" fill="white"/>
<path d="M22.16 280.885C22.16 280.474 22.4932 280.141 22.9041 280.141C23.315 280.141 23.6481 280.474 23.6481 280.885C23.6481 281.296 23.315 281.629 22.9041 281.629C22.4932 281.629 22.16 281.296 22.16 280.885Z" fill="white"/>
<path d="M40.2714 280.885C40.2714 279.531 41.3686 278.434 42.7222 278.434C44.0757 278.434 45.173 279.531 45.173 280.885C45.173 282.238 44.0757 283.336 42.7222 283.336C41.3686 283.336 40.2714 282.238 40.2714 280.885Z" fill="white"/>
<path d="M59.8896 280.885C59.8896 279.421 61.0764 278.234 62.5404 278.234C64.0044 278.234 65.1912 279.421 65.1912 280.885C65.1912 282.349 64.0044 283.535 62.5404 283.535C61.0764 283.535 59.8896 282.349 59.8896 280.885Z" fill="white"/>
<path d="M82.1758 280.885C82.1758 280.784 82.2576 280.702 82.3586 280.702C82.4595 280.702 82.5414 280.784 82.5414 280.885C82.5414 280.986 82.4595 281.067 82.3586 281.067C82.2576 281.067 82.1758 280.986 82.1758 280.885Z" fill="white"/>
<path d="M100.467 280.885C100.467 279.941 101.233 279.175 102.177 279.175C103.121 279.175 103.886 279.941 103.886 280.885C103.886 281.829 103.121 282.594 102.177 282.594C101.233 282.594 100.467 281.829 100.467 280.885Z" fill="white"/>
<path d="M119.92 280.885C119.92 279.739 120.849 278.809 121.995 278.809C123.141 278.809 124.07 279.739 124.07 280.885C124.07 282.031 123.141 282.96 121.995 282.96C120.849 282.96 119.92 282.031 119.92 280.885Z" fill="white"/>
<path d="M139.171 280.885C139.171 279.426 140.354 278.243 141.813 278.243C143.272 278.243 144.455 279.426 144.455 280.885C144.455 282.344 143.272 283.527 141.813 283.527C140.354 283.527 139.171 282.344 139.171 280.885Z" fill="white"/>
<path d="M160.267 280.885C160.267 280.131 160.878 279.521 161.631 279.521C162.385 279.521 162.995 280.131 162.995 280.885C162.995 281.638 162.385 282.249 161.631 282.249C160.878 282.249 160.267 281.638 160.267 280.885Z" fill="white"/>
<path d="M180.302 280.885C180.302 280.251 180.816 279.737 181.449 279.737C182.083 279.737 182.597 280.251 182.597 280.885C182.597 281.518 182.083 282.032 181.449 282.032C180.816 282.032 180.302 281.518 180.302 280.885Z" fill="white"/>
</svg>
